# AST/ASF file generated using VICON BodyLanguage
# -----------------------------------------------
:version 1.10
:name VICON
:units
  mass 1.0
  length 0.45
  angle deg
:documentation
   .ast/.asf automatically generated from VICON data using
   VICON BodyBuilder and BodyLanguage model FoxedUp or BRILLIANT.MOD
:root
   order TX TY TZ RX RY RZ
   axis XYZ
   position 0 0 0  
   orientation 0 0 0 
:bonedata
  begin
     id 1 
     name lhipjoint
     direction 0.535335 -0.74333 0.401095 
     length 2.04549 
     axis 0 0 0  XYZ
  end
  begin
     id 2 
     name lfemur
     direction 0.34202 -0.939693 0  
     length 6.95643  
     axis 0 0 20  XYZ
    dof rx ry rz
    limits (-160.0 20.0)
           (-70.0 70.0)
           (-60.0 70.0)
  end
  begin
     id 3 
     name ltibia
     direction 0.34192 -0.939729 0   
     length 5.55969   
     axis 0 0 20   XYZ
    dof rx
    limits (-10.0 170.0)
  end
  begin
     id 4 
     name lfoot
     direction 0.216943 -0.596046 0.773088   
     length 2.27918   
     axis -90 7.62852e-016 20   XYZ
    dof rx rz
    limits (-45.0 90.0)
           (-70.0 20.0)
  end
  begin
     id 5 
     name ltoes
     direction 1.53519e-011 -4.21748e-011 1   
     length 1.05562   
     axis -90 7.62852e-016 20   XYZ
    dof rx
    limits (-90.0 20.0)
  end
  begin
     id 6 
     name rhipjoint
     direction -0.576368 -0.719173 0.38806   
     length 2.1142  
     axis 0 0 0  XYZ 
  end
  begin
     id 7 
     name rfemur
     direction -0.34202 -0.939693 0   
     length 7.07928   
     axis 0 0 -20   XYZ
    dof rx ry rz
    limits (-160.0 20.0)
           (-70.0 70.0)
           (-70.0 60.0)
  end
  begin
     id 8 
     name rtibia
     direction -0.34202 -0.939693 0   
     length 5.79974   
     axis 0 0 -20   XYZ
    dof rx
    limits (-10.0 170.0)
 end
 begin
     id 9 
     name rfoot
     direction -0.189288 -0.520065 0.832888   
     length 2.42173  
     axis -90 -7.62852e-016 -20   XYZ
    dof rx rz
    limits (-45.0 90.0)
           (-20.0 70.0)
  end
  begin
     id 10 
     name rtoes
     direction -1.53574e-011 -4.21658e-011 1   
     length 1.14469   
     axis -90 -7.62852e-016 -20   XYZ
    dof rx
    limits (-90.0 20.0)
  end
  begin
     id 11 
     name lowerback
     direction -0.00135702 0.993803 0.111144   
     length 1.91308   
     axis 0 0 0   XYZ
    dof rx ry rz
    limits (-20.0 45.0)
           (-30.0 30.0)
           (-30.0 30.0)
  end
  begin
     id 12 
     name upperback
     direction -0.0056745 0.999813 0.0184631   
     length 1.9212   
     axis 0 0 0   XYZ
    dof rx ry rz
    limits (-20.0 45.0)
           (-30.0 30.0)
           (-30.0 30.0)
  end
  begin
     id 13 
     name thorax
     direction -0.00733434 0.999426 -0.0330788   
     length 1.94196   
     axis 0 0 0   XYZ
    dof rx ry rz
    limits (-20.0 45.0)
           (-30.0 30.0)
           (-30.0 30.0)
  end
  begin
     id 14 
     name lowerneck
     direction 0.0563074 0.996944 -0.0541571   
     length 2.34257   
     axis 0 0 0   XYZ
    dof rx ry rz
    limits (-20.0 45.0)
           (-30.0 30.0)
           (-30.0 30.0)
  end
  begin
     id 15 
     name upperneck
     direction -0.0544519 0.976166 -0.210085   
     length 2.32506   
     axis 0 0 0   XYZ
    dof rx ry rz
    limits (-20.0 45.0)
           (-30.0 30.0)
           (-30.0 30.0)
  end
  begin
     id 16
     name head
     direction -0.0226035 0.997615 -0.0652205  
     length 2.3648  
     axis 0 0 0   XYZ
    dof rx ry rz
    limits (-20.0 45.0)
           (-30.0 30.0)
           (-30.0 30.0)
  end
  begin
     id 17 
     name lclavicle
     direction 0.92109 0.381297 -0.0787716  
     length 4.0487  
     axis 0 0 0   XYZ
    dof ry rz
    limits (-20.0 10.0)
           (0.0 20.0)
  end
  begin
     id 18 
     name lhumerus
     direction 1 -4.48986e-011 3.56724e-027   
     length 4.94991   
     axis 180 -30 -90   XYZ
    dof rx ry rz
    limits (-60.0 90.0)
           (-90.0 90.0)
           (-90.0 90.0)
  end
  begin
     id 19
     name lradius
     direction 1 -4.48981e-011 8.62147e-027   
     length 2.7606   
     axis 180 -30 -90   XYZ
    dof rx
    limits (-10.0 170.0)
  end
  begin
     id 20
     name lwrist
     direction 1 -4.48989e-011 1.59799e-026   
     length 1.3803   
     axis -1.17785e-014 90 90   XYZ
    dof ry
    limits (-180.0 0.0)
 end
  begin
     id 21 
     name lhand
     direction 1 -4.48896e-011 3.19599e-026   
     length 0.843936   
     axis -2.03931e-014 90 90   XYZ
    dof rx rz
    limits (-90.0 90.0)
           (-45.0 45.0)
  end
  begin
     id 22 
     name lfingers
     direction 1 -4.48887e-011 6.39197e-026   
     length 0.680403   
     axis -4.07862e-014 90 90   XYZ
    dof rx
    limits (0.0 90.0)
  end
  begin
     id 23
     name lthumb
     direction 0.707107 -6.348e-011 0.707107   
     length 0.976926   
     axis -90 45 2.85299e-015   XYZ
    dof rx rz
    limits (-45.0 45.0)
           (-45.0 45.0)
  end
  begin
     id 24 
     name rclavicle
     direction -0.951104 0.307692 -0.026953   
     length 4.21801  
     axis 0 0 0   XYZ 
    dof ry rz
    limits (-10.0 20.0)
           (-20.0 0.0)
  end
  begin
     id 25 
     name rhumerus
     direction -1 -4.4896e-011 -1.8171e-018  
     length 4.32982   
     axis 180 30 90   XYZ
    dof rx ry rz
    limits (-90.0 60.0)
           (-90.0 90.0)
           (-90.0 90.0)
  end
  begin
     id 26 
     name rradius
     direction -1 -4.48959e-011 8.25165e-027   
     length 3.20057   
     axis 180 30 90   XYZ
    dof rx
    limits (-10.0 170.0)
  end
  begin
     id 27 
     name rwrist
     direction -1 -4.48997e-011 1.59799e-026   
     length 1.60029   
     axis -1.17785e-014 -90 -90   XYZ
    dof ry
    limits (-180.0 0.0)
  end
  begin
     id 28
     name rhand
     direction -1 -4.49023e-011 3.19599e-026   
     length 0.960433   
     axis -2.03931e-014 -90 -90   XYZ
    dof rx rz
    limits (-90.0 90.0)
           (-45.0 45.0)
  end
  begin
     id 29
     name rfingers
     direction -1 -4.48802e-011 6.39197e-026   
     length 0.774326   
     axis -4.07862e-014 -90 -90   XYZ
    dof rx
    limits (0.0 90.0)
  end
  begin
     id 30
     name rthumb
     direction -0.707107 -6.34876e-011 0.707107   
     length 1.11178   
     axis -90 -45 -2.85299e-015   XYZ
    dof rx rz
    limits (-45.0 45.0)
           (-45.0 45.0)
  end
:hierarchy
  begin
    root lhipjoint rhipjoint lowerback
    lhipjoint lfemur
    lfemur ltibia
    ltibia lfoot
    lfoot ltoes
    rhipjoint rfemur
    rfemur rtibia
    rtibia rfoot
    rfoot rtoes
    lowerback upperback
    upperback thorax
    thorax lowerneck lclavicle rclavicle
    lowerneck upperneck
    upperneck head
    lclavicle lhumerus
    lhumerus lradius
    lradius lwrist
    lwrist lhand lthumb
    lhand lfingers
    rclavicle rhumerus
    rhumerus rradius
    rradius rwrist
    rwrist rhand rthumb
    rhand rfingers
end

#!OML:ASF C:\KaitlinTest1\Natural Motions\Nikki\Session 2\Nikki.ASF
:FULLY-SPECIFIED
:DEGREES
220
root -10.0018 14.3679 4.95981 -184.831 85.6423 -213.249
lowerback 7.90522 -2.22039 -1.75646
upperback -3.35792 -3.18712 -0.322259
thorax -7.9004 -1.47206 1.10899
lowerneck -25.0819 -14.7128 -5.94611
upperneck -0.565516 36.6832 2.88731
head 160.008 62.3997 -45.1733
rclavicle 1.74931e-014 3.65764e-014
rhumerus -15.4675 33.862 -84.7875
rradius 57.4417
rwrist -9.14162
rhand -44.8109 8.20435
rfingers 7.12502
rthumb -17.6017 -21.0189
lclavicle 1.74931e-014 3.65764e-014
lhumerus -0.569212 -13.7235 84.03
lradius 28.6753
lwrist -25.0504
lhand -35.2494 5.00017
lfingers 7.12502
lthumb -8.38551 34.8137
rfemur -55.0663 0.116377 17.4668
rtibia 76.4439
rfoot -36.715 -12.2915
rtoes 4.13472e-014
lfemur -54.3009 -1.84886 -21.2003
ltibia 69.7798
lfoot -29.2156 3.78255
ltoes 1.11319e-014
221
root -9.87476 14.4579 4.95895 -181.109 85.6038 -209.413
lowerback 7.0514 -2.28418 -1.55324
upperback -3.61845 -3.22545 -0.212772
thorax -7.68758 -1.50007 1.08277
lowerneck -24.2166 -14.5652 -6.16218
upperneck -0.367144 36.6536 2.93388
head 160.178 62.599 -44.9224
rclavicle 8.54774e-015 -4.77083e-015
rhumerus -14.6135 34.2136 -83.3908
rradius 59.31
rwrist -8.84112
rhand -44.9577 8.19565
rfingers 7.12502
rthumb -17.743 -21.0149
lclavicle 8.54774e-015 -4.77083e-015
lhumerus 0.100715 -14.9206 83.3092
lradius 30.7101
lwrist -23.0731
lhand -36.7259 4.94369
lfingers 7.12502
lthumb -9.81018 34.6952
rfemur -53.8326 -0.0281725 17.8682
rtibia 75.2104
rfoot -36.0875 -12.103
rtoes -3.33958e-014
lfemur -53.0332 -1.79285 -20.9111
ltibia 68.4787
lfoot -28.6566 3.65388
ltoes -1.03368e-013
222
root -9.7395 14.5605 4.9582 -177.571 85.5992 -205.793
lowerback 6.15123 -2.31597 -1.35064
upperback -3.96636 -3.22046 -0.0756295
thorax -7.54057 -1.50346 1.07955
lowerneck -23.1145 -14.4747 -6.48322
upperneck -0.207338 36.0625 2.86802
head 159.668 63.2554 -44.9991
rclavicle 2.79292e-014 1.15295e-014
rhumerus -13.7632 34.277 -81.8189
rradius 60.8778
rwrist -7.13725
rhand -44.7627 6.80799
rfingers 7.12502
rthumb -17.5553 -22.4194
lclavicle 2.79292e-014 1.15295e-014
lhumerus 0.500013 -15.2934 82.9386
lradius 32.7688
lwrist -21.6882
lhand -38.0704 4.94981
lfingers 7.12502
lthumb -11.1071 34.6359
rfemur -52.5328 -0.171823 18.2434
rtibia 73.8246
rfoot -35.3514 -11.6882
rtoes 2.70347e-014
lfemur -51.6848 -1.65125 -20.6331
ltibia 66.9547
lfoot -27.9432 3.41661
ltoes 6.36111e-014
223
root -9.59097 14.6741 4.95787 -174.943 85.5473 -203.004
lowerback 5.13601 -2.36995 -1.22998
upperback -4.25685 -3.25289 0.0432936
thorax -7.26059 -1.52286 1.09949
lowerneck -22.0739 -14.2803 -6.81468
upperneck 0.0737308 36.2351 2.9239
head 160.028 63.3192 -44.6083
rclavicle 2.0276e-014 1.66979e-014
rhumerus -13.2618 34.6447 -80.608
rradius 62.5045
rwrist -7.7012
rhand -45.0492 7.32282
rfingers 7.12502
rthumb -17.831 -21.8797
lclavicle 2.0276e-014 1.66979e-014
lhumerus 0.867459 -16.4348 82.2858
lradius 34.8278
lwrist -19.4067
lhand -39.1763 5.13639
lfingers 7.12502
lthumb -12.1736 34.7622
rfemur -51.0566 -0.440244 18.604
rtibia 72.2979
rfoot -34.4212 -11.357
rtoes -1.90833e-013
lfemur -50.0756 -1.5486 -20.4011
ltibia 65.2163
lfoot -27.2558 3.12119
ltoes -2.22639e-014
224
root -9.43569 14.8007 4.95895 -172.613 85.4949 -200.423
lowerback 4.18621 -2.36737 -1.00138
upperback -4.55048 -3.20881 0.0678546
thorax -7.0352 -1.51081 0.955431
lowerneck -20.8804 -14.1108 -7.23946
upperneck 0.392984 36.4705 3.01967
head 160.87 63.1508 -43.8301
rclavicle 3.58806e-014 5.96354e-015
rhumerus -12.9417 34.6677 -79.5256
rradius 64.0169
rwrist -8.31605
rhand -45.3558 7.9137
rfingers 7.12502
rthumb -18.126 -21.2617
lclavicle 3.58806e-014 5.96354e-015
lhumerus 1.10387 -17.4229 81.716
lradius 36.9015
lwrist -17.5592
lhand -40.0822 5.26194
lfingers 7.12502
lthumb -13.047 34.8339
rfemur -49.4816 -0.768245 18.9433
rtibia 70.6537
rfoot -33.2865 -10.6857
rtoes 2.22639e-013
lfemur -48.2089 -1.45476 -20.1434
ltibia 63.2056
lfoot -26.3101 2.68644
ltoes 2.00375e-013
225
root -9.27059 14.9356 4.95823 -169.714 85.533 -197.203
lowerback 3.163 -2.27471 -0.794608
upperback -4.78706 -3.04095 0.198456
thorax -6.70145 -1.43423 0.918887
lowerneck -19.5904 -13.9948 -7.93327
upperneck 0.642437 36.3081 2.95847
head 161.367 63.1927 -43.1553
rclavicle -8.24956e-015 -1.49089e-014
rhumerus -12.5886 34.6087 -78.1227
rradius 65.3159
rwrist -8.53787
rhand -45.5486 8.14353
rfingers 7.12502
rthumb -18.3115 -21.0146
lclavicle -8.24956e-015 -1.49089e-014
lhumerus 1.37425 -18.4067 81.3658
lradius 38.8439
lwrist -15.6247
lhand -40.8641 5.24442
lfingers 7.12502
lthumb -13.8006 34.7666
rfemur -47.7487 -1.08824 19.337
rtibia 68.8642
rfoot -31.9567 -9.95309
rtoes 4.77083e-014
lfemur -46.1809 -1.17417 -19.8845
ltibia 61.0179
lfoot -25.2279 2.33252
ltoes 1.36764e-013
226
root -9.07669 15.0853 4.9524 -165.095 85.5056 -192.249
lowerback 1.72609 -2.22837 -0.406433
upperback -4.97635 -2.92397 0.35427
thorax -6.08672 -1.39181 0.795496
lowerneck -18.3121 -13.75 -8.60037
upperneck 0.994303 36.6575 3.00659
head 162.295 63.0261 -42.3224
rclavicle -1.2424e-015 1.31198e-014
rhumerus -12.6025 34.7166 -77.1328
rradius 66.644
rwrist -9.49187
rhand -45.915 8.5301
rfingers 7.12502
rthumb -18.664 -20.5945
lclavicle -1.2424e-015 1.31198e-014
lhumerus 1.44172 -18.9589 81.082
lradius 40.7178
lwrist -14.1224
lhand -40.9481 5.18999
lfingers 7.12502
lthumb -13.8816 34.7067
rfemur -45.73 -1.67798 19.9522
rtibia 66.9608
rfoot -30.5127 -9.21503
rtoes 9.54166e-015
lfemur -43.8774 -0.939218 -19.4879
ltibia 58.6132
lfoot -24.0866 1.85515
ltoes 9.54166e-015
227
root -8.89352 15.2329 4.95462 -161.367 85.4849 -187.995
lowerback 0.696494 -2.1817 -0.190754
upperback -5.19065 -2.8277 0.487693
thorax -5.72711 -1.3477 0.768161
lowerneck -16.8555 -13.5213 -9.14577
upperneck 1.40475 36.8847 3.08968
head 162.978 62.8919 -41.5931
rclavicle 2.65874e-014 1.41137e-014
rhumerus -12.6165 35.0862 -76.1981
rradius 67.9724
rwrist -11.6652
rhand -46.7547 9.76738
rfingers 7.12502
rthumb -19.4715 -19.2777
lclavicle 2.65874e-014 1.41137e-014
lhumerus 1.3326 -19.5838 80.7428
lradius 42.5815
lwrist -12.6079
lhand -40.9058 5.2267
lfingers 7.12502
lthumb -13.8408 34.7462
rfemur -43.5916 -2.17641 20.4643
rtibia 64.9958
rfoot -28.7102 -8.25769
rtoes 1.59028e-014
lfemur -41.4338 -0.57921 -19.1088
ltibia 56.0814
lfoot -22.6379 1.11282
ltoes 1.27222e-014
228
root -8.71511 15.3898 4.95575 -160.274 85.3013 -186.317
lowerback -0.190596 -2.20281 -0.0779447
upperback -5.44991 -2.83161 0.554149
thorax -5.49516 -1.34789 0.742809
lowerneck -15.2809 -13.3254 -9.61994
upperneck 1.88546 37.0875 3.17578
head 163.251 62.7809 -41.1181
rclavicle 5.51627e-015 -1.96797e-014
rhumerus -12.9091 35.0679 -75.5264
rradius 68.8952
rwrist -11.7388
rhand -46.9084 9.62279
rfingers 7.12502
rthumb -19.6192 -19.4072
lclavicle 5.51627e-015 -1.96797e-014
lhumerus 1.05678 -19.9186 80.5212
lradius 44.2725
lwrist -11.5736
lhand -40.5945 5.14492
lfingers 7.12502
lthumb -13.5408 34.6846
rfemur -41.4512 -2.92425 20.7852
rtibia 62.9738
rfoot -26.5791 -6.98982
rtoes -7.95139e-014
lfemur -38.9749 -0.419308 -18.8384
ltibia 53.3867
lfoot -20.6086 0.239861
ltoes -9.54166e-015
229
root -8.52076 15.5577 4.95651 -159.666 85.4861 -185.354
lowerback -1.49328 -2.29202 -0.234594
upperback -5.81355 -2.92852 0.531254
thorax -5.1279 -1.3811 0.762685
lowerneck -13.5337 -12.867 -9.86512
upperneck 2.59591 38.062 3.57776
head 164.489 62.2162 -40.1168
rclavicle 1.11319e-014 -1.33186e-014
rhumerus -13.5559 35.1309 -75.6356
rradius 69.7999
rwrist -11.4995
rhand -46.9677 9.07472
rfingers 7.12502
rthumb -19.6762 -19.9495
lclavicle 1.11319e-014 -1.33186e-014
lhumerus 0.425916 -19.987 79.9519
lradius 45.8935
lwrist -10.5187
lhand -40.2653 4.77422
lfingers 7.12502
lthumb -13.2236 34.3348
rfemur -39.6259 -3.62147 20.9204
rtibia 60.9298
rfoot -24.1263 -5.43049
rtoes -1.27222e-014
lfemur -36.6398 0.0925051 -18.8101
ltibia 50.579
lfoot -18.4099 -0.567482
ltoes 1.59028e-014
230
root -8.31837 15.7281 4.96938 -152.209 85.2692 -176.734
lowerback -2.12047 -2.31876 0.212044
upperback -5.90833 -2.93944 0.731625
thorax -4.88374 -1.39873 0.696069
lowerneck -11.7109 -12.5559 -10.2184
upperneck 3.20147 38.3711 3.81233
head 164.97 62.1293 -39.4958
rclavicle -1.63003e-014 -3.97569e-016
rhumerus -14.3292 34.85 -75.5932
rradius 70.5453
rwrist -10.73
rhand -46.8883 8.6574
rfingers 7.12502
rthumb -19.5999 -20.3746
lclavicle -1.63003e-014 -3.97569e-016
lhumerus -0.223908 -20.0791 79.6786
lradius 47.3937
lwrist -9.97905
lhand -39.8402 4.50483
lfingers 7.12502
lthumb -12.8138 34.0916
rfemur -36.8254 -4.44954 21.8669
rtibia 58.7759
rfoot -21.4132 -4.09285
rtoes -8.26944e-014
lfemur -33.4894 0.576814 -17.8892
ltibia 47.6708
lfoot -15.8021 -1.66197
ltoes -4.13472e-014
231
root -8.11352 15.9158 4.97248 -151.624 85.1597 -175.188
lowerback -3.01282 -2.36572 0.235822
upperback -5.97996 -2.98987 0.797337
thorax -4.45132 -1.41993 0.713445
lowerneck -10.0008 -12.1936 -10.7396
upperneck 3.80998 38.9012 4.05422
head 165.809 61.8397 -38.6779
rclavicle 4.89507e-015 -1.39149e-015
rhumerus -15.2052 34.1632 -75.5967
rradius 71.307
rwrist -9.8824
rhand -46.7339 8.99603
rfingers 7.12502
rthumb -19.4514 -20.051
lclavicle 4.89507e-015 -1.39149e-015
lhumerus -0.783173 -20.2462 79.413
lradius 48.8499
lwrist -9.45496
lhand -39.5055 4.43214
lfingers 7.12502
lthumb -12.4911 34.0388
rfemur -34.3162 -5.63388 22.1282
rtibia 56.6816
rfoot -18.4229 -2.28541
rtoes 3.18055e-014
lfemur -30.5556 1.01079 -17.6479
ltibia 44.7125
lfoot -12.8412 -2.73157
ltoes 5.08889e-014
232
root -7.89207 16.1141 4.97092 -145.404 85.4469 -168.005
lowerback -4.26607 -2.09959 0.611291
upperback -5.82063 -2.63471 0.921631
thorax -3.59396 -1.25398 0.575912
lowerneck -8.5658 -11.9829 -11.3413
upperneck 4.22374 38.967 4.11034
head 166.189 61.8047 -38.125
rclavicle -2.77802e-014 9.64106e-015
rhumerus -15.3926 34.1098 -74.8723
rradius 71.9658
rwrist -10.5278
rhand -46.7251 9.15135
rfingers 7.12502
rthumb -19.4429 -19.8966
lclavicle -2.77802e-014 9.64106e-015
lhumerus -1.02458 -20.5997 79.3211
lradius 50.3383
lwrist -8.62842
lhand -39.5094 4.03582
lfingers 7.12502
lthumb -12.4948 33.6423
rfemur -31.7892 -6.41158 22.5384
rtibia 54.562
rfoot -15.2094 -0.430719
rtoes -4.45278e-014
lfemur -27.4848 1.94101 -17.1573
ltibia 41.7373
lfoot -9.69218 -3.67369
ltoes -9.85972e-014
233
root -7.69572 16.3042 4.97799 -142.247 85.3335 -163.845
lowerback -5.13209 -2.16995 0.761069
upperback -5.73691 -2.73451 0.968626
thorax -3.02709 -1.3064 0.502717
lowerneck -7.12308 -11.6835 -11.4945
upperneck 4.74753 39.2409 4.37427
head 166.479 61.898 -37.7395
rclavicle -1.35919e-014 1.19271e-015
rhumerus -15.9206 34.0461 -74.9432
rradius 72.7427
rwrist -10.6929
rhand -46.6357 8.9543
rfingers 7.12502
rthumb -19.357 -20.1023
lclavicle -1.35919e-014 1.19271e-015
lhumerus -1.47636 -20.6284 78.6425
lradius 51.8017
lwrist -8.33595
lhand -38.9961 4.01577
lfingers 7.12502
lthumb -11.9999 33.6518
rfemur -29.5053 -7.36636 22.8832
rtibia 52.6289
rfoot -11.8699 1.23295
rtoes 2.54444e-014
lfemur -24.7032 2.62581 -16.6492
ltibia 38.894
lfoot -6.00144 -4.91548
ltoes -9.85972e-014
